<?xml version="1.0" encoding="utf-8"?>
<!-- Generator: Adobe Illustrator 16.0.0, SVG Export Plug-In . SVG Version: 6.00 Build 0)  -->
<!DOCTYPE svg PUBLIC "-//W3C//DTD SVG 1.1//EN" "http://www.w3.org/Graphics/SVG/1.1/DTD/svg11.dtd">
<svg version="1.1" id="Layer_1" xmlns="http://www.w3.org/2000/svg" xmlns:xlink="http://www.w3.org/1999/xlink" x="0px" y="0px"
	 width="685.531px" height="133.257px" viewBox="263.778 -45.288 685.531 133.257"
	 enable-background="new 263.778 -45.288 685.531 133.257" xml:space="preserve">
<g>
	<path fill="#14D9C4" d="M285.401,55.943c0.53,4.706,3.012,8.112,7.388,9.698c4.151,1.505,8.738,1.389,11.531-2.267
		c3.421-4.478,6.576-3.444,10.318-1.094c1.087,0.681,2.303,1.149,3.749,1.856c-5.094,6.423-11.689,10.829-18.79,14.606
		c-10.249,5.451-21.284,8.099-32.766,9.141c-1.771,0.159-3.284,0.396-3.024-2.46c1.692-18.649,7.67-35.455,20.51-49.483
		c2.133-2.326,2.861-2.551,4.587,0.664c2.353,4.371,4.12,7.85-1.03,11.435c-1.296,0.901-1.665,3.137-2.46,4.758
		c-1.984,0.848-2.067-0.579-1.745-1.727c0.626-2.235,0.794-4.628,1.78-6.267c-3.49,3.561-1.126,9.786-4.716,13.696
		C282.432,58.205,281.972,53.41,285.401,55.943z"/>
	<path fill="#14D9C4" d="M285.401,55.943c-3.131-1.181-2.416,2.307-3.854,3.172c-0.919,0.552-1.232,2.688-2.529,1.76
		c-1.324-0.952,0.136-2.075,0.918-2.824c2.306-2.215,2.332-5.233,2.325-7.939c-0.013-3.268,2.526-4.833,3.729-7.249
		c0.17-0.339,1.018-0.854,1.951-0.005c-3.013,2.028-1.984,5.711-3.56,8.415c-0.58,0.994,0.146,1.379,1.029,1.52
		C285.412,53.845,285.405,54.896,285.401,55.943z"/>
	<path fill="#FFFFFF" d="M321.706,60.589c1.346-0.964,2.571-1.997,3.052,0.819c0.356,2.07,1.781,3.824,1.689,6.134
		c-0.042,1.127,0.952,2.257,2.298,0.737c1.044,0.353,1.283,0.924,0.479,1.778c-1.758,0.987-3.653,2.57-4.081-1.202
		c-0.047-0.417-0.932-0.739-1.428-1.104C323.046,65.364,322.376,62.977,321.706,60.589z"/>
	<path fill="#FFFFFF" d="M395.931-39.384c-0.509-2.739-1.561-4.153-4.504-4.704c-13.75-2.575-26.913-1.047-39.558,4.962
		C335.09-31.148,322.09-18.66,310.962-4.152c-2.647,3.454-5.545,4.711-9.519,5.304c-13.671,2.042-25.21,8.559-35.547,17.486
		c-1.899,1.64-2.086,3.637-1.328,5.644c0.672,1.771,2.174,2.69,4.296,2.746c4.033,0.106,8.163,0.016,12.063,0.871
		c4.453,0.978,10.49-0.739,11.927,6.586c0.614,3.13,4.481,6.148,4.086,8.8c-0.409,2.741-4.344,4.86-6.475,7.467
		c-2.537,3.099-1.877,6.894,1.432,10.039c2.916,2.771,6.421,2.933,9.44,0.257c1.948-1.725,3.734-3.636,5.542-5.511
		c1.012-1.052,1.849-1.582,3.29-0.453c3.419,2.671,7.413,4.245,11.536,5.502c1.512,0.109,2.086,1.119,2.561,2.408
		c0.44,1.198,0.678,2.455,1.065,3.67c0.286,0.903,0.954,1.606,1.225,2.476c0.43,1.4-0.079,3.85,1.735,4.552
		c0.986,0.382,2.053-0.636,1.996-1.554c-0.06-0.96-0.17-2.144-0.363-3.117c-0.44-2.228-0.445-4.464-1.005-6.675
		c-0.401-1.589-0.195-2.672,1.454-3.486c4.62-2.284,8.797-5.364,13.616-7.978c-2.003,10.679-6.806,19.704-13.01,27.558
		c-0.39-2.454-0.25-5.447-1.265-8.286c-1.594-0.389-3.577,0.135-4.355-2.095c-0.202-0.573-0.985-0.766-1.645-0.311
		c0.324,4.677,0.772,9.35,0.933,14.031c0.081,2.419,0.548,4.502,2.938,5.416c2.483,0.951,4.369-0.082,6.114-2.083
		c9.541-10.96,15.674-23.479,17.418-37.956c0.271-2.229,1.192-3.425,2.809-4.68c13.162-10.215,25.08-21.581,33.604-36.146
		C395.876-7.922,398.957-23.052,395.931-39.384z M291.125,24.385c-6.312-2.072-12.965-1.992-20.073-2.95
		c9.535-8.012,19.771-12.974,31.995-15.234c-3.549,6.046-6.618,11.285-9.706,16.514C292.84,23.568,292.519,24.842,291.125,24.385z
		 M299.514,23.247c2.179,3.295,4.242,6.561,6.472,9.708c0.833,1.179,0.371,1.733-0.422,2.564c-1.251,1.321-2.349,2.785-3.755,4.482
		C298.578,34.266,293.87,29.569,299.514,23.247z M308.879,46.06c-3.306,3.312-6.626,6.609-9.93,9.922
		c-1.158,1.161-2.172,2.262-3.837,0.503c-1.569-1.662-0.295-2.5,0.691-3.488c9.185-9.205,18.369-18.406,27.571-27.593
		c0.623-0.623,1.179-1.415,3.057-1.479c0.182,0.277,0.75,1.001,1.159,1.804c0.635,1.234-0.377,1.935-1.077,2.637
		C320.65,34.279,314.765,40.169,308.879,46.06z M313.336,50.958c-0.303-0.323-0.725-0.551-0.511-1.258
		c0.796-2.625,5.187-4.237,7.445-2.727c2.688,1.795,5.434,3.496,8.396,5.393C323.478,55.658,317.151,54.999,313.336,50.958z
		 M389.065-10.271c-4.711,14.54-13.828,26.086-24.552,36.521c-8.336,8.114-17.656,15.002-27.426,21.306
		c-1.712,1.104-3.062,1.472-4.893,0.431c-3.599-2.043-8.888-3.431-9.868-6.873c-0.714-2.505,4.544-5.338,7.135-8.022
		c4.013-4.159,4.816-6.688,2.735-10.203c-2.843-4.798-8.431-5.534-12.519-1.601c-2.914,2.802-5.766,5.668-8.963,8.82
		c-3.03-3.575-5.123-7.607-7.329-11.575c-0.632-1.142-0.296-1.976,0.281-2.872c12.543-19.45,26.905-37.116,47.692-48.439
		c3.643-1.982,7.519-3.409,11.447-4.758c1.877-0.643,2.458-0.035,3.258,1.377c5.18,9.157,12.336,16.402,21.478,21.605
		C389.5-13.441,389.775-12.462,389.065-10.271z M390.956-18.726c-8.213-4.709-14.688-10.806-19.43-18.747
		c-0.752-1.255-1.071-2.051,0.958-2.152c5.058-0.249,10.085-0.346,15.135,0.35c2.368,0.327,3.337,1.43,3.568,3.619
		C391.769-30.14,392.146-24.629,390.956-18.726z"/>
	<path fill="#FFFFFF" d="M356.954-24.58c-11.192,0.008-19.853,8.602-19.795,19.64c0.058,11.206,8.612,19.647,19.829,19.571
		c10.935-0.075,19.516-8.715,19.465-19.602C376.404-15.871,367.736-24.586,356.954-24.58z M356.917,7.052
		c-6.88,0.047-12.127-5.131-12.164-12.005C344.72-11.724,350.03-16.996,356.896-17c6.615-0.004,11.933,5.343,11.965,12.029
		C368.889,1.706,363.626,7.008,356.917,7.052z"/>
	<path fill="#14D9C4" d="M356.866,1.373c-3.631,0.024-6.399-2.708-6.42-6.334c-0.018-3.573,2.785-6.355,6.407-6.357
		c3.492-0.002,6.297,2.819,6.313,6.348C363.182-1.449,360.404,1.348,356.866,1.373z"/>
</g>
<g>
	<path fill="#FFFFFF" d="M453.231-3.13c2.928,0,5.508,0.457,7.74,1.368c2.231,0.912,4.128,2.028,5.688,3.348
		c1.56,1.321,2.748,2.736,3.564,4.248c0.815,1.512,1.248,2.869,1.296,4.068c0.047,0.432-0.097,0.804-0.432,1.116
		c-0.337,0.313-0.721,0.468-1.152,0.468h-2.952c-0.528,0-0.948-0.096-1.26-0.288c-0.312-0.191-0.637-0.623-0.972-1.296
		c-0.241-0.479-0.637-1.091-1.188-1.836c-0.553-0.744-1.296-1.464-2.231-2.16c-0.937-0.695-2.077-1.296-3.421-1.8
		c-1.344-0.504-2.904-0.756-4.68-0.756c-1.345,0-2.628,0.157-3.852,0.468c-1.225,0.312-2.316,0.781-3.276,1.404
		c-0.961,0.625-1.728,1.404-2.304,2.34c-0.576,0.936-0.864,2.029-0.864,3.276c0,1.249,0.275,2.304,0.828,3.168
		c0.551,0.864,1.439,1.645,2.664,2.34c1.224,0.696,2.771,1.332,4.644,1.908c1.872,0.576,4.151,1.224,6.84,1.944
		c2.736,0.72,5.052,1.512,6.948,2.376c1.896,0.864,3.443,1.836,4.645,2.916c1.199,1.08,2.075,2.329,2.628,3.744
		c0.551,1.416,0.828,3.013,0.828,4.788c0,2.16-0.469,4.14-1.404,5.94c-0.937,1.8-2.244,3.348-3.924,4.644
		c-1.681,1.296-3.708,2.304-6.084,3.024c-2.376,0.72-5.029,1.08-7.956,1.08c-2.784,0-5.353-0.409-7.704-1.224
		c-2.353-0.816-4.368-1.872-6.048-3.168c-1.681-1.296-3.013-2.736-3.996-4.32c-0.984-1.584-1.501-3.143-1.548-4.68
		c0-0.432,0.155-0.803,0.468-1.116c0.312-0.312,0.684-0.468,1.116-0.468h2.952c0.479,0,0.899,0.097,1.26,0.288
		c0.359,0.192,0.684,0.624,0.972,1.296c0.288,0.673,0.731,1.404,1.332,2.196c0.6,0.792,1.404,1.537,2.412,2.232
		c1.008,0.696,2.232,1.285,3.672,1.764c1.44,0.48,3.144,0.72,5.112,0.72c1.68,0,3.275-0.191,4.788-0.576
		c1.512-0.384,2.844-0.936,3.996-1.656c1.151-0.72,2.062-1.584,2.735-2.592c0.672-1.008,1.008-2.135,1.008-3.384
		c0-1.248-0.385-2.315-1.151-3.204c-0.769-0.888-1.872-1.692-3.312-2.412c-1.439-0.72-3.204-1.379-5.292-1.98
		c-2.088-0.6-4.452-1.235-7.092-1.908c-2.4-0.623-4.44-1.379-6.12-2.268c-1.681-0.887-3.049-1.908-4.104-3.06
		c-1.057-1.152-1.812-2.423-2.269-3.816c-0.456-1.392-0.684-2.903-0.684-4.536c0-1.775,0.36-3.503,1.08-5.184
		c0.72-1.68,1.787-3.168,3.204-4.464c1.415-1.296,3.191-2.34,5.328-3.132C447.843-2.734,450.352-3.13,453.231-3.13z"/>
	<path fill="#FFFFFF" d="M507.232,21.71l24.552,23.4c0.288,0.288,0.479,0.54,0.576,0.756c0.096,0.216,0.144,0.396,0.144,0.54
		c0,0.432-0.156,0.804-0.468,1.116c-0.312,0.312-0.684,0.468-1.116,0.468h-4.464c-0.673,0-1.224-0.132-1.656-0.396
		c-0.432-0.263-0.744-0.492-0.936-0.684l-20.376-19.44v18.576c0,0.529-0.192,0.984-0.576,1.368
		c-0.385,0.385-0.841,0.576-1.368,0.576h-2.952c-0.528,0-0.984-0.191-1.368-0.576c-0.385-0.383-0.575-0.839-0.575-1.368V-0.466
		c0-0.527,0.19-0.983,0.575-1.368c0.384-0.383,0.84-0.576,1.368-0.576h2.952c0.527,0,0.983,0.192,1.368,0.576
		c0.384,0.385,0.576,0.841,0.576,1.368V16.31l19.224-17.64c0.191-0.191,0.504-0.42,0.937-0.684c0.432-0.263,0.982-0.396,1.655-0.396
		h4.177c0.432,0,0.803,0.156,1.115,0.468c0.312,0.313,0.469,0.684,0.469,1.116c0,0.144-0.049,0.324-0.145,0.54
		c-0.097,0.216-0.288,0.468-0.576,0.756L507.232,21.71z"/>
	<path fill="#FFFFFF" d="M574.552,46.046c0,0.529-0.192,0.984-0.576,1.368c-0.385,0.385-0.841,0.576-1.368,0.576h-2.952
		c-0.528,0-0.984-0.191-1.368-0.576c-0.385-0.383-0.576-0.839-0.576-1.368V29.198L550.503,0.182
		c-0.24-0.432-0.359-0.767-0.359-1.008c0-0.432,0.155-0.803,0.468-1.116c0.312-0.312,0.684-0.468,1.116-0.468h3.096
		c0.96,0,1.644,0.192,2.052,0.576c0.407,0.385,0.731,0.792,0.973,1.224l13.248,22.896L584.415-0.61
		c0.24-0.432,0.564-0.839,0.973-1.224c0.407-0.383,1.091-0.576,2.052-0.576h3.096c0.433,0,0.804,0.156,1.116,0.468
		c0.312,0.313,0.468,0.684,0.468,1.116c0,0.241-0.12,0.576-0.359,1.008l-17.208,29.016V46.046z"/>
	<path fill="#FFFFFF" d="M646.119,41.51c0.527,0,0.982,0.192,1.367,0.576c0.384,0.385,0.576,0.84,0.576,1.368v2.592
		c0,0.529-0.192,0.984-0.576,1.368c-0.385,0.385-0.84,0.576-1.367,0.576h-29.305c-0.528,0-0.984-0.191-1.368-0.576
		c-0.385-0.383-0.575-0.839-0.575-1.368V-0.466c0-0.527,0.19-0.983,0.575-1.368c0.384-0.383,0.84-0.576,1.368-0.576h2.952
		c0.527,0,0.983,0.192,1.368,0.576c0.384,0.385,0.576,0.841,0.576,1.368V41.51H646.119z"/>
	<path fill="#FFFFFF" d="M700.766,36.614h-24.983l-3.744,9.576c-0.144,0.385-0.408,0.781-0.792,1.188
		c-0.385,0.408-1.057,0.612-2.016,0.612h-2.664c-0.433,0-0.805-0.155-1.116-0.468c-0.312-0.312-0.468-0.684-0.468-1.116
		c0-0.24,0.096-0.576,0.288-1.008l17.64-45.432c0.239-0.528,0.6-1.055,1.08-1.584c0.479-0.528,1.199-0.792,2.16-0.792h4.319
		c0.96,0,1.68,0.264,2.16,0.792c0.479,0.529,0.84,1.056,1.08,1.584l17.568,45.432c0.191,0.432,0.288,0.768,0.288,1.008
		c0,0.432-0.156,0.804-0.469,1.116c-0.312,0.312-0.684,0.468-1.115,0.468h-2.664c-0.961,0-1.633-0.204-2.017-0.612
		c-0.385-0.407-0.647-0.803-0.792-1.188L700.766,36.614z M678.302,30.134h19.944L688.311,4.43L678.302,30.134z"/>
	<path fill="#FFFFFF" d="M735.33,47.99c-0.529,0-0.985-0.191-1.37-0.576c-0.385-0.383-0.577-0.839-0.577-1.368V-0.466
		c0-0.527,0.19-0.983,0.575-1.368c0.384-0.383,0.84-0.576,1.368-0.576h19.296c3.071,0,5.616,0.468,7.633,1.404
		c2.016,0.936,3.623,2.088,4.823,3.456c1.199,1.368,2.053,2.844,2.557,4.428s0.756,3,0.756,4.248c0,1.584-0.237,2.977-0.711,4.176
		c-0.475,1.2-1.032,2.208-1.671,3.024c-0.64,0.817-1.28,1.465-1.92,1.944c-0.641,0.48-1.103,0.817-1.387,1.008
		c1.824,1.249,3.42,2.892,4.788,4.932c1.368,2.041,2.052,4.428,2.052,7.164c0,1.825-0.337,3.6-1.01,5.328s-1.671,3.289-2.994,4.68
		c-1.322,1.393-2.98,2.509-4.977,3.348c-1.996,0.84-4.293,1.26-6.89,1.26H735.33z M740.223,4.07v14.544h13.68
		c3.216,0,5.627-0.623,7.236-1.872c1.607-1.248,2.412-3.047,2.412-5.4c0-2.351-0.805-4.151-2.412-5.4
		c-1.609-1.248-4.021-1.872-7.236-1.872H740.223z M740.223,25.094V41.51h14.731c1.589,0,2.996-0.216,4.224-0.648
		s2.25-1.032,3.068-1.8c0.819-0.767,1.433-1.631,1.842-2.592c0.41-0.959,0.614-1.991,0.614-3.096c0-1.055-0.193-2.088-0.578-3.096
		c-0.385-1.008-0.974-1.896-1.769-2.664c-0.794-0.767-1.806-1.379-3.033-1.836c-1.229-0.456-2.684-0.684-4.368-0.684H740.223z"/>
	<path fill="#FFFFFF" d="M826.838,41.51c0.528,0,0.983,0.192,1.368,0.576c0.384,0.385,0.576,0.84,0.576,1.368v2.592
		c0,0.529-0.192,0.984-0.576,1.368c-0.385,0.385-0.84,0.576-1.368,0.576H797.75c-0.528,0-0.984-0.191-1.368-0.576
		c-0.385-0.383-0.575-0.839-0.575-1.368V-0.466c0-0.527,0.19-0.983,0.575-1.368c0.384-0.383,0.84-0.576,1.368-0.576h28.513
		c0.527,0,0.982,0.192,1.367,0.576c0.384,0.385,0.576,0.841,0.576,1.368v2.592c0,0.528-0.192,0.984-0.576,1.368
		c-0.385,0.385-0.84,0.576-1.367,0.576h-23.616v15.192h22.032c0.527,0,0.982,0.192,1.367,0.576c0.384,0.385,0.576,0.84,0.576,1.368
		v2.592c0,0.529-0.192,0.984-0.576,1.368c-0.385,0.385-0.84,0.576-1.367,0.576h-22.032V41.51H826.838z"/>
	<path fill="#FFFFFF" d="M872.197-2.41c2.352,0,4.572,0.288,6.66,0.864c2.088,0.576,3.924,1.465,5.508,2.664
		c1.584,1.201,2.845,2.736,3.78,4.608c0.937,1.872,1.404,4.129,1.404,6.768c0,3.888-0.972,6.984-2.916,9.288
		s-4.428,3.937-7.452,4.896l10.872,18.936c0.144,0.288,0.216,0.552,0.216,0.792c0,0.432-0.156,0.804-0.468,1.116
		c-0.312,0.312-0.684,0.468-1.116,0.468h-3.096c-0.961,0-1.669-0.24-2.124-0.72c-0.457-0.479-0.781-0.887-0.972-1.224l-10.44-18.36
		H859.67v18.36c0,0.529-0.192,0.984-0.576,1.368c-0.385,0.385-0.841,0.576-1.368,0.576h-2.952c-0.528,0-0.984-0.191-1.368-0.576
		c-0.385-0.383-0.575-0.839-0.575-1.368V-0.466c0-0.527,0.19-0.983,0.575-1.368c0.384-0.383,0.84-0.576,1.368-0.576H872.197z
		 M859.67,21.206h12.168c3.456,0,6.131-0.684,8.027-2.052s2.845-3.588,2.845-6.66c0-3.071-0.948-5.244-2.845-6.516
		c-1.896-1.271-4.571-1.908-8.027-1.908H859.67V21.206z"/>
	<path fill="#FFFFFF" d="M929.581-3.13c2.928,0,5.508,0.457,7.74,1.368c2.231,0.912,4.128,2.028,5.688,3.348
		c1.56,1.321,2.748,2.736,3.564,4.248c0.815,1.512,1.248,2.869,1.296,4.068c0.047,0.432-0.097,0.804-0.432,1.116
		c-0.337,0.313-0.721,0.468-1.152,0.468h-2.952c-0.528,0-0.948-0.096-1.26-0.288c-0.312-0.191-0.637-0.623-0.972-1.296
		c-0.241-0.479-0.637-1.091-1.188-1.836c-0.553-0.744-1.296-1.464-2.231-2.16c-0.937-0.695-2.077-1.296-3.421-1.8
		c-1.344-0.504-2.904-0.756-4.68-0.756c-1.345,0-2.628,0.157-3.852,0.468c-1.225,0.312-2.316,0.781-3.276,1.404
		c-0.961,0.625-1.728,1.404-2.304,2.34c-0.576,0.936-0.864,2.029-0.864,3.276c0,1.249,0.275,2.304,0.828,3.168
		c0.551,0.864,1.439,1.645,2.664,2.34c1.224,0.696,2.771,1.332,4.644,1.908c1.872,0.576,4.151,1.224,6.84,1.944
		c2.736,0.72,5.052,1.512,6.948,2.376c1.896,0.864,3.443,1.836,4.645,2.916c1.199,1.08,2.075,2.329,2.628,3.744
		c0.551,1.416,0.828,3.013,0.828,4.788c0,2.16-0.469,4.14-1.404,5.94c-0.937,1.8-2.244,3.348-3.924,4.644
		c-1.681,1.296-3.708,2.304-6.084,3.024c-2.376,0.72-5.029,1.08-7.956,1.08c-2.784,0-5.353-0.409-7.704-1.224
		c-2.353-0.816-4.368-1.872-6.048-3.168c-1.681-1.296-3.013-2.736-3.996-4.32c-0.984-1.584-1.501-3.143-1.548-4.68
		c0-0.432,0.155-0.803,0.468-1.116c0.312-0.312,0.684-0.468,1.116-0.468h2.952c0.479,0,0.899,0.097,1.26,0.288
		c0.359,0.192,0.684,0.624,0.972,1.296c0.288,0.673,0.731,1.404,1.332,2.196c0.6,0.792,1.404,1.537,2.412,2.232
		c1.008,0.696,2.232,1.285,3.672,1.764c1.44,0.48,3.144,0.72,5.112,0.72c1.68,0,3.275-0.191,4.788-0.576
		c1.512-0.384,2.844-0.936,3.996-1.656c1.151-0.72,2.062-1.584,2.735-2.592c0.672-1.008,1.008-2.135,1.008-3.384
		c0-1.248-0.385-2.315-1.151-3.204c-0.769-0.888-1.872-1.692-3.312-2.412c-1.439-0.72-3.204-1.379-5.292-1.98
		c-2.088-0.6-4.452-1.235-7.092-1.908c-2.4-0.623-4.44-1.379-6.12-2.268c-1.681-0.887-3.049-1.908-4.104-3.06
		c-1.057-1.152-1.812-2.423-2.269-3.816c-0.456-1.392-0.684-2.903-0.684-4.536c0-1.775,0.36-3.503,1.08-5.184
		c0.72-1.68,1.787-3.168,3.204-4.464c1.415-1.296,3.191-2.34,5.328-3.132C924.192-2.734,926.701-3.13,929.581-3.13z"/>
</g>
</svg>
