<?xml version="1.0" encoding="utf-8"?>
<!-- Generator: Adobe Illustrator 16.0.0, SVG Export Plug-In . SVG Version: 6.00 Build 0)  -->
<!DOCTYPE svg PUBLIC "-//W3C//DTD SVG 1.1//EN" "http://www.w3.org/Graphics/SVG/1.1/DTD/svg11.dtd">
<svg version="1.1" id="Layer_1" xmlns="http://www.w3.org/2000/svg" xmlns:xlink="http://www.w3.org/1999/xlink" x="0px" y="0px"
	 width="170.119px" height="170.076px" viewBox="0 0 170.119 170.076" enable-background="new 0 0 170.119 170.076"
	 xml:space="preserve">
<path fill-rule="evenodd" clip-rule="evenodd" fill="#21A8AF" d="M27.601,129.2c0.677,6.006,3.842,10.353,9.428,12.377
	c5.299,1.921,11.154,1.771,14.717-2.893c4.365-5.715,8.393-4.396,13.17-1.396c1.385,0.869,2.939,1.466,4.783,2.368
	c-6.501,8.199-14.918,13.822-23.979,18.641c-13.084,6.959-27.168,10.341-41.82,11.67c-2.26,0.205-4.193,0.506-3.862-3.141
	c2.161-23.801,9.789-45.252,26.178-63.154c2.72-2.971,3.653-3.258,5.856,0.844c2.999,5.58,5.259,10.018-1.318,14.594
	c-1.654,1.151-2.124,4.004-3.139,6.074c-2.532,1.083-2.637-0.74-2.227-2.205c0.798-2.853,1.014-5.906,2.272-7.998
	c-4.454,4.545-1.436,12.491-6.02,17.481C23.807,132.086,23.221,125.967,27.601,129.2z"/>
<path fill-rule="evenodd" clip-rule="evenodd" fill="#21A8AF" d="M27.601,129.2c-3.996-1.507-3.084,2.944-4.921,4.048
	c-1.173,0.704-1.573,3.431-3.226,2.245c-1.689-1.213,0.171-2.646,1.17-3.604c2.943-2.826,2.979-6.678,2.967-10.131
	c-0.014-4.171,3.227-6.169,4.761-9.251c0.215-0.433,1.3-1.091,2.491-0.007c-3.846,2.59-2.531,7.289-4.545,10.74
	c-0.738,1.268,0.186,1.76,1.316,1.943C27.61,126.523,27.605,127.862,27.601,129.2z"/>
<path fill-rule="evenodd" clip-rule="evenodd" fill="#FFFFFF" d="M73.935,135.129c1.717-1.232,3.282-2.548,3.896,1.047
	c0.451,2.641,2.272,4.88,2.157,7.83c-0.056,1.439,1.213,2.88,2.929,0.938c1.334,0.452,1.641,1.181,0.611,2.269
	c-2.242,1.26-4.662,3.281-5.205-1.533c-0.061-0.531-1.189-0.943-1.824-1.41C75.646,141.223,74.79,138.176,73.935,135.129z"/>
<path fill-rule="evenodd" clip-rule="evenodd" fill="#FFFFFF" d="M168.667,7.535c-0.648-3.496-1.992-5.3-5.75-6.003
	c-17.55-3.286-34.35-1.337-50.484,6.332C91.015,18.044,74.425,33.984,60.224,52.5c-3.381,4.408-7.08,6.013-12.15,6.771
	C30.624,61.877,15.897,70.195,2.704,81.588c-2.424,2.093-2.661,4.641-1.692,7.202c0.854,2.26,2.773,3.436,5.481,3.506
	c5.148,0.135,10.418,0.021,15.396,1.113c5.685,1.246,13.39-0.945,15.223,8.404c0.783,3.994,5.72,7.848,5.214,11.234
	c-0.522,3.498-5.544,6.203-8.265,9.528c-3.236,3.956-2.395,8.8,1.83,12.815c3.719,3.537,8.193,3.744,12.048,0.329
	c2.485-2.202,4.765-4.642,7.073-7.034c1.293-1.342,2.357-2.02,4.199-0.578c4.363,3.41,9.462,5.418,14.723,7.021
	c1.928,0.141,2.662,1.428,3.268,3.075c0.678,1.844,0.991,3.792,1.674,5.597c0.842,2.225,2.066,4.499,4.692,1.432
	c0.817-2.67,0.222-5.283-0.427-7.857c-0.512-2.028-0.25-3.409,1.855-4.449c5.9-2.915,11.229-6.846,17.379-10.182
	c-2.555,13.629-8.686,25.145-16.604,35.17c-0.496-3.131-0.322-6.951-1.615-10.574c-2.033-0.496-4.564,0.171-5.559-2.674
	c-0.257-0.733-1.257-0.98-2.1-0.396c0.418,5.969,0.988,11.932,1.191,17.908c0.104,3.088,0.701,5.748,3.75,6.914
	c3.172,1.213,5.577-0.104,7.803-2.662c12.178-13.986,20.006-29.965,22.233-48.441c0.343-2.846,1.52-4.372,3.585-5.975
	c16.799-13.037,32.008-27.541,42.887-46.13C168.597,47.689,172.53,28.379,168.667,7.535z M34.903,88.921
	c-8.057-2.642-16.545-2.541-25.619-3.765c12.17-10.225,25.234-16.559,40.836-19.442c-4.531,7.717-8.449,14.403-12.387,21.077
	C37.092,87.879,36.682,89.504,34.903,88.921z M45.61,87.472c2.781,4.204,5.415,8.37,8.258,12.389
	c1.064,1.503,0.475,2.21-0.534,3.272c-1.599,1.686-3,3.556-4.792,5.719C44.415,101.534,38.409,95.538,45.61,87.472z M57.565,116.585
	c-4.221,4.226-8.459,8.435-12.676,12.665c-1.477,1.48-2.771,2.887-4.896,0.639c-2.003-2.119-0.375-3.19,0.883-4.45
	c11.72-11.749,23.445-23.491,35.188-35.218c0.795-0.793,1.506-1.803,3.903-1.886c0.232,0.354,0.955,1.277,1.48,2.302
	c0.809,1.576-0.483,2.469-1.375,3.368C72.589,101.551,65.075,109.067,57.565,116.585z M63.254,122.836
	c-0.39-0.412-0.929-0.702-0.655-1.607c1.016-3.348,6.619-5.408,9.503-3.48c3.429,2.291,6.937,4.462,10.716,6.881
	C76.194,128.836,68.122,127.993,63.254,122.836z M159.905,44.691c-6.014,18.557-17.648,33.294-31.334,46.612
	c-10.64,10.354-22.535,19.145-35.004,27.191c-2.184,1.41-3.909,1.879-6.246,0.551c-4.591-2.609-11.341-4.38-12.593-8.772
	c-0.911-3.197,5.798-6.815,9.104-10.239c5.122-5.308,6.15-8.536,3.493-13.023c-3.627-6.124-10.762-7.062-15.979-2.043
	c-3.717,3.577-7.356,7.234-11.438,11.257c-3.869-4.564-6.54-9.708-9.354-14.774c-0.809-1.458-0.378-2.521,0.359-3.665
	c16.007-24.824,34.338-47.37,60.869-61.822c4.646-2.531,9.596-4.35,14.609-6.071c2.395-0.822,3.14-0.046,4.16,1.758
	c6.61,11.687,15.744,20.933,27.412,27.573C160.459,40.645,160.812,41.895,159.905,44.691z M162.318,33.899
	c-10.481-6.009-18.745-13.791-24.8-23.926c-0.957-1.601-1.365-2.617,1.225-2.745c6.455-0.318,12.871-0.442,19.317,0.445
	c3.024,0.417,4.258,1.825,4.552,4.619C163.354,19.333,163.835,26.365,162.318,33.899z"/>
<path fill-rule="evenodd" clip-rule="evenodd" fill="#FFFFFF" d="M118.919,26.429c-14.283,0.009-25.335,10.977-25.262,25.066
	c0.075,14.302,10.99,25.075,25.309,24.978c13.955-0.095,24.906-11.123,24.843-25.018C143.745,37.544,132.682,26.42,118.919,26.429z
	 M118.875,66.801c-8.782,0.06-15.479-6.549-15.524-15.322c-0.045-8.643,6.734-15.371,15.496-15.376
	c8.443-0.006,15.229,6.818,15.269,15.353C134.154,59.978,127.437,66.743,118.875,66.801z"/>
</svg>
